<svg id="Layer_1" data-name="Layer 1" xmlns="http://www.w3.org/2000/svg" viewBox="0 0 1061 512"><defs><style>.cls-1,.cls-2,.cls-3,.cls-6{fill:#8c8c90;}.cls-2{font-size:174px;}.cls-2,.cls-3,.cls-6{font-family:KristenITC-Regular, Kristen ITC;}.cls-3{font-size:180px;}.cls-4{fill:#fa7000;}.cls-5{font-size:80px;}.cls-6{font-size:56.67px;}</style></defs><title>404</title><path class="cls-1" d="M265.83,148.38c-9.28-42.8-50.28-49.38-70-49.38-24.24,0-63.45,5.39-70,56.27-5.09,39.21,13.17,89.79,26.34,106.85,15,18.86,28.13,28.43,46.69,28.43,17.06,0,28.73-8.38,44.6-31.13C257.75,238.48,273.31,184.6,265.83,148.38ZM233.5,252.54c-15,21.85-23.64,25.74-34.72,25.74-13.47,0-23.64-6.58-37.41-23.94-10.48-13.47-28.73-60.46-23.94-97.87,4.19-31.73,22.15-45.79,58.06-45.79,44.9,0,55.67,28.13,58.36,40.11C261,183.7,246.37,234,233.5,252.54Z"/><text class="cls-2" transform="translate(281 233)">?</text><text class="cls-3" transform="translate(400 260)">4<tspan class="cls-4" x="88.24" y="0">0</tspan><tspan x="196.26" y="0">4</tspan><tspan class="cls-5"><tspan x="0" y="96">Page not found!</tspan></tspan></text><path class="cls-1" d="M344.71,315.67c-20.56-5.61-92.5-23.67-92.5-23.67s-18.69,97.17-40.8,97.17H184c-19.93,0-35.82-86.9-41.11-96.55,0,0-71.95,17.75-92.5,23.36s-25.23,52.32-25.23,85.65c0,0,44.85,26.47,172.55,26.47,127.39,0,172.24-26.47,172.24-26.47C369.94,368.31,365.58,321.28,344.71,315.67ZM37.93,393.53c.93-44.85,10-64.16,15.88-65.72,15.26-4,59.8-15.26,81-20.56.62,2.8,1.56,5.61,2.18,8.41,13.39,50.14,24.29,85.65,47,85.65h27.41c16.2,0,28.34-17.13,40.8-57.31,4.36-13.7,7.47-27.41,9.66-37.06,21.49,5.61,64.78,16.51,79.73,20.56,5.92,1.56,14.95,20.87,15.88,65.72C341.6,399.76,293.95,415,198,415,101.78,415.34,53.81,400.08,37.93,393.53Z"/><text class="cls-6" transform="translate(156.54 191.15)">x</text><text class="cls-6" transform="translate(202.79 190.44)">x</text><text class="cls-6" transform="translate(179.79 255.44)">o</text></svg>