<svg id="Layer_1" data-name="Layer 1" xmlns="http://www.w3.org/2000/svg" viewBox="0 0 492 492"><defs><style>.cls-1,.cls-2,.cls-4{fill:#cacaca;}.cls-2,.cls-3{fill-rule:evenodd;}.cls-3{fill:none;}.cls-4{stroke:#cacaca;stroke-miterlimit:10;}</style></defs><title>box</title><path class="cls-1" d="M245.21,68.43l-173,56.78a6.48,6.48,0,0,1,.51.56l.83.43L89,128.34l.39.08L247.9,178.29l166.6-52.93.36-.08,4.44-.69-171.65-56-.14-.06a3.3,3.3,0,0,0-2-.14l-.27.09ZM65.52,122.36,241.44,64.63h0l2.29-.75a8.15,8.15,0,0,1,5.4.12h0l178.15,58.17-.74,4.68c-.3,0-.16.36-.57.67a7.65,7.65,0,0,1-1.66,1.08l-.54.15-8,1.25-167.15,53.1h-1.44l-.28-.09h0L88.17,133.05l-15.68-2.16-.77-.24L70,129.78l-.87-.76c-.19-.28-.66-.27-1.44-.26-.57,0-.11,0-.67,0-2.27,0-2.53-1.49-2.77-2.92h0c0-.14,0-.23,0-.27h0c-.1-.37.34-.39.91-.24l1.16-.3-.78-2.69Zm1,3.6-.14-.48-.6.1a5.47,5.47,0,0,1,.73.37Zm-.14-.48-.13-.43-1.15.3a5.26,5.26,0,0,1,.67.24Z"/><path class="cls-1" d="M63.34,132.35V362.59a3.34,3.34,0,0,0,2.39,3.22l.09,0,176.46,60.55,1.92-241.93c-4.35-1.39-12.37-4-22.7-7.35C172.24,161.1,70.25,128,65.87,128.95h0a3.4,3.4,0,0,0-.57.21h0a3.26,3.26,0,0,0-1.54,1.45c0,.09-.09.18-.13.26s-.08.19-.1.27h0c0,.1-.06.19-.08.26s0,.17-.05.25h0s0,.13,0,.25,0,.23,0,.26h0v.13Zm-4.8,230.25V132.21h0c0-.26,0-.47,0-.63s0-.39.08-.65h0v0c0-.22.08-.42.13-.62s.11-.41.17-.6h0c.08-.24.16-.47.25-.67s.2-.45.31-.66a8.27,8.27,0,0,1,3.74-3.53h0a8.22,8.22,0,0,1,1.28-.47h.13c5.52-1.42,108.57,32.07,158.33,48.24,11.81,3.84,20.6,6.69,24.33,7.87L249,181v1.77l-2,246.88,0,2.64L244.4,432l-.54-.08h-.35l-.59-.15h0l-.5-.17h0L64.27,370.38h0a8.19,8.19,0,0,1-5.73-7.79Z"/><path class="cls-2" d="M84.64,339.75a6,6,0,0,1,2.16.83h0v12.7a1.79,1.79,0,0,1,.63.95.93.93,0,0,1-.11.78,1.58,1.58,0,0,1,.11.31.93.93,0,0,1-.11.78,1.57,1.57,0,0,1,.11.31.93.93,0,0,1-.11.78,1.57,1.57,0,0,1,.11.31.93.93,0,0,1-.11.78,1.57,1.57,0,0,1,.11.31.93.93,0,0,1-.11.78,1.57,1.57,0,0,1,.11.31c.15.63-.19,1.1-.77,1l-1.33-.13A1.69,1.69,0,0,1,84,359.35a.93.93,0,0,1,.11-.78,1.58,1.58,0,0,1-.11-.31.93.93,0,0,1,.11-.78,1.55,1.55,0,0,1-.11-.31.93.93,0,0,1,.11-.78,1.57,1.57,0,0,1-.11-.31.93.93,0,0,1,.11-.78A1.56,1.56,0,0,1,84,355a.93.93,0,0,1,.11-.78,1.56,1.56,0,0,1-.11-.31c-.14-.58.14-1,.63-1v-13.1Zm0-12.34v-1.65a.73.73,0,0,1,1.08-.69,1.72,1.72,0,0,1,1.08,1.48v1.62h0C86.08,327.88,85.38,327.65,84.64,327.41Z"/><path class="cls-2" d="M74.92,328.78a9.84,9.84,0,0,0-4.47,7.07c2-1.43,5.57-.47,8.07,2a9,9,0,0,1,1.89,2.59c1-1.45,3.17-1.67,5.31-.89h0l.07,0h0l.05,0h0l.14,0h0l.12.06a10,10,0,0,1,3.14,2.14A8.92,8.92,0,0,1,91,344.27c1-1.45,3.17-1.67,5.31-.89A10,10,0,0,1,101,347a23.26,23.26,0,0,0-4.54-10.42C90.46,328.57,80.9,325.11,74.92,328.78Z"/><polygon class="cls-2" points="121.1 366.48 121.1 351.91 125.56 353.5 116.24 338.53 106.92 346.87 111.38 348.46 111.38 363.02 121.1 366.48"/><polygon class="cls-2" points="141.33 373.67 141.33 359.1 145.79 360.69 136.47 345.72 127.15 354.06 131.62 355.65 131.62 370.21 141.33 373.67"/><polygon class="cls-2" points="111.47 366.99 111.47 369.44 141.18 380.23 141.18 377.77 111.47 366.99"/><path class="cls-1" d="M249.9,196.45l-1.83,229.87,177.34-60.85.09,0a3.34,3.34,0,0,0,2.39-3.22V131.84a3.39,3.39,0,0,0-.14-1h0a3.37,3.37,0,0,0-3.19-2.37h0a3.44,3.44,0,0,0-.67.06,3.34,3.34,0,0,0-.63.19l-.18.07L250,184.64l-.09,11.81Zm-6.63,233.12,1.85-233.16.11-13.72,0-3.24,2.64.83,173.63-56a8.07,8.07,0,0,1,1.43-.43,8.16,8.16,0,0,1,1.58-.16h0a8.18,8.18,0,0,1,7.75,5.73h0a8.16,8.16,0,0,1,.37,2.42V362.22A8.18,8.18,0,0,1,427,370h0L248.84,431.13h0c-.31.11-1,.36-1.65.54a5.76,5.76,0,0,1-1.67.32l-2.28-.13Z"/><polygon class="cls-3" points="320.57 197.98 320.58 197.98 322.65 194.01 326.62 196.07 328.68 192.1 332.68 194.18 334.76 190.18 338.76 192.25 340.84 188.25 344.84 190.33 346.91 186.33 350.91 188.41 352.99 184.41 356.99 186.48 359.07 182.48 363.07 184.56 365.15 180.56 365.16 180.57 363.46 142.87 334.35 133.59 185.55 86.26 144.24 99.82 318.77 157.93 320.57 197.98"/><path class="cls-4" d="M321.29,200.27h0l-3,.91-.14-3.09-1.73-38.41-173-57.59V97.54L184.81,84h1.46l148.8,47.33,29.11,9.28,1.59.51.08,1.67,1.7,37.69.19,4.15-1.57-.82-1,1.86-1.11,2.13-2.12-1.1-1.88-1-1,1.87L358,189.71l-2.12-1.1-1.88-1-1,1.87-1.11,2.13-2.12-1.1-1.88-1-1,1.87-1.11,2.13-2.12-1.1-1.88-1-1,1.87-1.11,2.13-2.12-1.1-1.88-1-1,1.87-1.11,2.13-2.12-1.1-1.88-1-1,1.84-1.11,2.13-2.12-1.1-1.85-1-1,1.84-.46.9-1,.3Zm1.38-8.95,1.08.56,1.85,1,1-1.84,1.11-2.13,2.12,1.1,1.88,1,1-1.87,1.11-2.13,2.12,1.1,1.88,1,1-1.87,1.11-2.13,2.12,1.1,1.88,1,1-1.87,1.11-2.13,2.12,1.1,1.88,1,1-1.87,1.11-2.13,2.12,1.1,1.88,1,1-1.87,1.11-2.13,2.12,1.1,1.88,1,.69-1.33-1.59-35.36-27.52-8.77L185.57,88.78,151.87,99.84l167.65,55.83,1.57.52.07,1.64Z"/><polygon class="cls-3" points="371.13 349.95 413.48 336.91 413.49 353.85 371.14 366.89 371.13 349.95"/><path class="cls-1" d="M370.43,347.66l42.35-13,3.1-1v22l-1.7.52-42.35,13-3.1,1v-22l1.7-.52Zm40.66-7.52-37.55,11.57v11.94l37.55-11.57Z"/><polygon class="cls-3" points="371.12 326.04 413.47 312.99 413.48 329.93 371.13 342.98 371.12 326.04"/><path class="cls-1" d="M370.41,323.75l42.35-13,3.1-1v22l-1.7.52-42.35,13-3.1,1v-22l1.7-.52Zm40.66-7.52L373.52,327.8v11.94l37.55-11.57Z"/></svg>