<svg id="Layer_1" data-name="Layer 1" xmlns="http://www.w3.org/2000/svg" viewBox="0 0 512 512"><defs><style>.cls-1{fill:#fa7000;}.cls-2{fill:#2c3e50;}</style></defs><title>customer</title><path class="cls-1" d="M264.5,314.57H250.75c-7.74,0-13.76,6.88-13.76,14.19v9a13.4,13.4,0,0,0,7.74,12.47l-6,76.1h37.84l-5.16-76.1c4.73-2.15,8.6-6.88,8.6-12.47v-9c0-7.31-8.17-14.19-15.48-14.19Z"/><path class="cls-2" d="M459.71,337.78C431.33,330,332,305.11,332,305.11s-25.8,134.15-56.33,134.15H237.85c-27.52,0-49.45-120-56.76-133.29,0,0-99.32,24.51-127.7,32.25S18.57,410.45,18.57,456.45c0,0,61.91,36.55,238.2,36.55,175.85,0,237.77-36.55,237.77-36.55C494.53,410.45,488.51,345.52,459.71,337.78ZM36.19,445.27C37.48,383.36,50,356.7,58.12,354.55c21.07-5.59,82.55-21.07,111.79-28.38.86,3.87,2.15,7.74,3,11.61C191.41,407,206.46,456,237.85,456h37.84c22.36,0,39.13-23.65,56.33-79.11,6-18.92,10.32-37.84,13.33-51.17,29.67,7.74,89.43,22.79,110.07,28.38,8.17,2.15,20.64,28.81,21.93,90.72-21.93,9-87.71,30.1-220.14,30.1C124.34,475.37,58.12,454.3,36.19,445.27Z"/><path class="cls-2" d="M356.07,82.84C342.74,21.36,283.84,11.9,255.46,11.9c-34.83,0-91.15,7.74-100.61,80.83-7.31,56.33,18.92,129,37.84,153.5,21.5,27.09,40.42,40.85,67.07,40.85,24.51,0,41.28-12,64.06-44.72C344.46,212.26,366.82,134.87,356.07,82.84ZM309.64,232.47c-21.5,31.39-34,37-49.88,37-19.35,0-34-9.46-53.75-34.4-15-19.35-41.28-86.85-34.4-140.6,6-45.58,31.82-65.78,83.41-65.78,64.49,0,80,40.42,83.84,57.61C349.19,133.58,328.12,205.81,309.64,232.47Z"/></svg>