<svg id="Layer_1" data-name="Layer 1" xmlns="http://www.w3.org/2000/svg" viewBox="0 0 512 512"><defs><style>.cls-1{fill:#242526;}.cls-2,.cls-3{fill:#ff7000;}.cls-3{font-size:260px;font-family:MyriadPro-Bold, Myriad Pro;font-weight:700;}</style></defs><title>ico</title><path class="cls-1" d="M296,476.5c-103.39,0-187.5-84.11-187.5-187.5S192.61,101.5,296,101.5,483.5,185.61,483.5,289,399.39,476.5,296,476.5Z"/><path class="cls-1" d="M296,102a186.41,186.41,0,1,1-72.79,14.69A185.83,185.83,0,0,1,296,102m0-1c-103.83,0-188,84.17-188,188s84.17,188,188,188,188-84.17,188-188S399.83,101,296,101Z"/><path class="cls-1" d="M296,458c-93.19,0-169-75.81-169-169s75.81-169,169-169,169,75.81,169,169S389.19,458,296,458Z"/><path class="cls-2" d="M296,132a157,157,0,1,1-111,46,156,156,0,0,1,111-46m0-24A181,181,0,1,0,477,289,181,181,0,0,0,296,108Z"/><path class="cls-1" d="M212.85,410.54a188.43,188.43,0,0,1-114.67-39.3A185.53,185.53,0,0,1,30.93,267.81C6.23,167.42,67.8,65.64,168.19,40.93A187,187,0,0,1,327.82,74.76a185.53,185.53,0,0,1,67.25,103.43c24.71,100.39-36.87,202.17-137.26,226.88A188.35,188.35,0,0,1,212.85,410.54Z"/><path class="cls-1" d="M213.15,36A186.83,186.83,0,0,1,394.58,178.31,186.84,186.84,0,0,1,257.69,404.58,186.81,186.81,0,0,1,31.42,267.69,186.84,186.84,0,0,1,168.31,41.42,187.84,187.84,0,0,1,213.15,36h0m0-1a188.46,188.46,0,0,0-45.08,5.49C67.25,65.26,5.63,167.11,30.45,267.93A187.79,187.79,0,0,0,257.93,405.55c100.82-24.81,162.44-126.66,137.62-227.48A188.07,188.07,0,0,0,213.15,35Z"/><path class="cls-1" d="M212.35,391C119.71,390.64,44.64,315,45,222.35A168,168,0,0,1,213,55h.67c92.63.36,167.71,76,167.35,168.65A168,168,0,0,1,213,391Z"/><path class="cls-2" d="M213,67h.56A156,156,0,0,1,213,379h-.62A156,156,0,0,1,213,67H213M213,43c-99.08,0-179.6,80.13-180,179.3A180,180,0,0,0,212.3,403H213a180,180,0,0,0,.68-360Z"/><text class="cls-3" transform="translate(139.72 305.73) rotate(0.22)">$</text></svg>