<svg id="Layer_1" data-name="Layer 1" xmlns="http://www.w3.org/2000/svg" viewBox="0 0 512 512"><defs><style>.cls-1{fill:#fa7000;}.cls-2,.cls-3{fill:#2c3e50;}.cls-3{stroke:#fa7000;stroke-linecap:round;stroke-miterlimit:10;stroke-width:2px;}</style></defs><title>company</title><path class="cls-1" d="M259.41,357.58h-6.67a6.9,6.9,0,0,0-6.67,6.88v4.38a6.5,6.5,0,0,0,3.75,6l-2.92,36.92h18.36l-2.5-36.92a6.88,6.88,0,0,0,4.17-6v-4.38c0-3.55-4-6.88-7.51-6.88Z"/><path class="cls-2" d="M354.1,368.85C340.34,365.09,292.16,353,292.16,353s-12.51,65.08-27.32,65.08H246.48c-13.35,0-24-58.19-27.53-64.66,0,0-48.18,11.89-61.95,15.64s-16.9,35-16.9,57.36c0,0,30,17.73,115.55,17.73C341,444.14,371,426.42,371,426.42,371,404.1,368.08,372.6,354.1,368.85ZM148.65,421c.63-30,6.67-43,10.64-44,10.22-2.71,40-10.22,54.23-13.77.42,1.88,1,3.75,1.46,5.63,9,33.58,16.27,57.36,31.5,57.36h18.36c10.85,0,19-11.47,27.32-38.38,2.92-9.18,5-18.36,6.47-24.82C313,366.76,342,374.06,352,376.77c4,1,10,14,10.64,44-10.64,4.38-42.55,14.6-106.79,14.6C191.41,435.59,159.29,425.37,148.65,421Z"/><path class="cls-2" d="M303.83,245.17c-6.47-29.83-35-34.42-48.81-34.42-16.9,0-44.22,3.75-48.81,39.21-3.55,27.32,9.18,62.57,18.36,74.46,10.43,13.14,19.61,19.82,32.54,19.82,11.89,0,20-5.84,31.08-21.69C298.2,308,309,270.41,303.83,245.17ZM281.3,317.76c-10.43,15.23-16.48,17.94-24.2,17.94-9.39,0-16.48-4.59-26.07-16.69-7.3-9.39-20-42.13-16.69-68.21,2.92-22.11,15.44-31.91,40.46-31.91,31.29,0,38.8,19.61,40.67,27.95C300.49,269.78,290.27,304.83,281.3,317.76Z"/><path class="cls-1" d="M406.7,190.47V469.78h-302V190.47L85.25,206.55V491H426.18V206.55Z"/><path class="cls-2" d="M492.37,245.18a9.07,9.07,0,0,1-5.89-2.18L255.72,52.41,25,243a9.21,9.21,0,0,1-13.64-2.07,11.23,11.23,0,0,1,1.9-14.86l242.5-200.3L498.27,226.13a11.28,11.28,0,0,1,1.9,14.86A9.56,9.56,0,0,1,492.37,245.18Z"/><line class="cls-3" x1="153.44" y1="177.95" x2="353.13" y2="177.95"/><polygon class="cls-2" points="345.38 86.53 345.38 33.36 416.44 33.36 416.44 145.21 426.18 153.28 426.18 22.75 335.64 22.75 335.64 78.46 345.38 86.53"/></svg>